<svg width="1000" height="667" viewBox="0 0 1000 667" fill="none" xmlns="http://www.w3.org/2000/svg">
<path d="M653.335 533.6C763.792 533.6 853.335 444.012 853.335 333.5C853.335 222.988 763.792 133.4 653.335 133.4C549.67 133.4 464.427 212.308 454.335 313.365C413.473 294.874 369.328 283.824 324.122 280.915C349.325 121.713 487.123 0 653.335 0C837.43 0 986.668 149.313 986.668 333.5C986.668 510.969 848.117 656.061 673.333 666.41V667H453.658V637.894C453.658 600.083 438.073 563.316 409.508 535.828C380.862 508.261 341.513 492.368 300 492.368C258.487 492.368 219.138 508.261 190.492 535.828C161.927 563.316 146.341 600.083 146.341 637.894V667H0V637.182C0 559.231 32.334 485.086 88.8902 430.879C143.637 378.406 216.745 348.678 292.852 346.923C295.232 346.868 297.615 346.84 300 346.84C301.847 346.84 303.692 346.857 305.537 346.89C382.222 348.259 455.977 378.034 511.11 430.879C541.652 460.152 565.13 495.239 580.265 533.6H653.335Z" fill="white"/>
<path d="M361.283 582.366C377.535 596.506 386.667 615.686 386.667 635.684V667H213.333V635.684C213.333 615.686 222.465 596.506 238.717 582.366C254.97 568.224 277.015 560.28 300 560.28C322.985 560.28 345.03 568.224 361.283 582.366Z" fill="white"/>
<rect x="533" y="213" width="240" height="240" rx="120" fill="white"/>
</svg>
